<?xml version="1.0" encoding="UTF-8" standalone="no"?>
<!-- Created with Inkscape (http://www.inkscape.org/) -->

<svg
   xmlns:dc="http://purl.org/dc/elements/1.1/"
   xmlns:cc="http://creativecommons.org/ns#"
   xmlns:rdf="http://www.w3.org/1999/02/22-rdf-syntax-ns#"
   xmlns:svg="http://www.w3.org/2000/svg"
   xmlns="http://www.w3.org/2000/svg"
   xmlns:sodipodi="http://sodipodi.sourceforge.net/DTD/sodipodi-0.dtd"
   xmlns:inkscape="http://www.inkscape.org/namespaces/inkscape"
   version="1.1"
   id="svg83"
   width="230"
   height="355"
   viewBox="0 0 230 355"
   sodipodi:docname="add_card_weapon.svg"
   inkscape:version="0.92.1 r15371">
  <metadata
     id="metadata89">
    <rdf:RDF>
      <cc:Work
         rdf:about="">
        <dc:format>image/svg+xml</dc:format>
        <dc:type
           rdf:resource="http://purl.org/dc/dcmitype/StillImage" />
        <dc:title></dc:title>
      </cc:Work>
    </rdf:RDF>
  </metadata>
  <defs
     id="defs87" />
  <sodipodi:namedview
     pagecolor="#ffffff"
     bordercolor="#666666"
     borderopacity="1"
     objecttolerance="10"
     gridtolerance="10"
     guidetolerance="10"
     inkscape:pageopacity="0"
     inkscape:pageshadow="2"
     inkscape:window-width="1794"
     inkscape:window-height="1057"
     id="namedview85"
     showgrid="false"
     inkscape:zoom="1.3295775"
     inkscape:cx="247.3594"
     inkscape:cy="128.516"
     inkscape:window-x="118"
     inkscape:window-y="-8"
     inkscape:window-maximized="1"
     inkscape:current-layer="svg83" />
  <path
     d="M 255.68645,0.63161252 H -30.050843 V 357.48145 H 255.68645 Z"
     id="path4"
     inkscape:connector-curvature="0"
     style="fill:none;stroke-width:13.30500031" />
  <rect
     style="fill:#ffffff"
     id="rect40-5"
     width="3.4568832"
     height="39.887115"
     x="165.61967"
     y="-171.16353"
     transform="rotate(90)" />
  <path
     style="fill:#000000;stroke-width:0.19332124"
     d="m 107.3548,227.33159 c 0,-0.45197 0.73499,-4.66351 1.63331,-9.35899 l 1.63331,-8.53722 6.14338,-6.89707 c 3.37886,-3.79339 6.40158,-7.17171 6.71716,-7.50738 l 0.57377,-0.61031 -1.95054,-3.92403 c -4.09703,-8.24228 -6.23902,-16.33907 -7.1929,-27.18944 -0.26977,-3.06858 -0.26897,-7.29761 0.002,-8.31077 0.63562,-2.38036 2.56349,-4.66542 5.42247,-6.42713 2.37088,-1.46095 5.07688,-2.64107 11.77541,-5.13543 6.54201,-2.43609 10.05769,-4.06707 12.50541,-5.80149 2.17772,-1.54312 3.32416,-2.80597 4.75545,-5.23838 l 1.15269,-1.95892 0.22612,0.57336 c 0.12436,0.31534 0.4338,1.1723 0.68765,1.90435 1.09813,3.16673 3.26438,5.17037 8.3147,7.69055 2.93723,1.46573 8.82513,3.87362 8.99787,3.67974 3.74801,-4.20633 5.62092,-6.46802 5.62092,-6.78772 0,-0.10172 -2.0502,-1.64185 -4.55601,-3.42251 -2.50581,-1.78066 -4.53232,-3.3058 -4.50337,-3.38921 0.029,-0.0834 1.77787,-1.97259 3.88646,-4.19819 l 3.83381,-4.04654 4.18496,2.97959 c 2.30174,1.63879 4.24482,2.97961 4.31795,2.97961 0.0731,0 2.73284,-3.29946 5.91048,-7.33211 5.27987,-6.70056 5.82691,-7.33211 6.35098,-7.33211 0.42499,0 1.49489,0.65383 4.1326,2.5255 3.35266,2.37898 3.55916,2.56149 3.55916,3.14583 0,0.51819 -0.9248,1.80929 -5.6171,7.84183 -3.0894,3.97183 -5.61709,7.2782 -5.61709,7.34747 0,0.0692 2.09188,1.62047 4.64862,3.44711 2.55676,1.82664 4.64864,3.40134 4.64864,3.49932 0,0.14858 -5.96593,7.85542 -6.66749,8.61311 -0.17598,0.19005 -1.1555,-0.42513 -4.56301,-2.86572 -2.38641,-1.70924 -4.53552,-3.23603 -4.7758,-3.39286 -0.42518,-0.27752 -0.48037,-0.22668 -2.06364,1.90096 -0.89471,1.20237 -1.86963,2.55497 -2.16646,3.00577 l -0.53972,0.81967 1.28493,1.28001 c 0.82516,0.82198 1.51003,1.73639 1.91399,2.55545 0.62558,1.26835 0.62896,1.29098 0.61066,4.07474 -0.0276,4.20049 -1.05101,10.8685 -2.59142,16.88467 -3.66509,14.31429 -10.58803,25.50083 -20.37395,32.92166 -3.16973,2.40365 -7.4631,4.733 -10.66705,5.78734 l -1.84613,0.60752 -1.42712,-0.53074 c -1.89813,-0.70589 -5.11754,-2.39046 -7.10338,-3.71685 -1.38256,-0.92346 -1.64687,-1.03629 -1.88023,-0.80266 -0.14934,0.14951 -2.30644,3.12854 -4.79356,6.62008 l -4.52203,6.34826 -9.17598,3.25102 c -6.47718,2.29485 -9.42221,3.25103 -10.0132,3.25103 h -0.83724 z"
     id="path3700"
     inkscape:connector-curvature="0" />
  <rect
     style="fill:#ffffff"
     id="rect137"
     width="3.1596534"
     height="39.963154"
     x="146.85828"
     y="150.82747" />
  <rect
     style="fill:#ffffff"
     id="rect137-4"
     width="3.1596534"
     height="39.963154"
     x="169.64064"
     y="-168.41142"
     transform="rotate(90)" />
</svg>
