<?xml version="1.0" encoding="UTF-8" standalone="no"?>
<!-- Created with Inkscape (http://www.inkscape.org/) -->

<svg
   xmlns:dc="http://purl.org/dc/elements/1.1/"
   xmlns:cc="http://creativecommons.org/ns#"
   xmlns:rdf="http://www.w3.org/1999/02/22-rdf-syntax-ns#"
   xmlns:svg="http://www.w3.org/2000/svg"
   xmlns="http://www.w3.org/2000/svg"
   xmlns:sodipodi="http://sodipodi.sourceforge.net/DTD/sodipodi-0.dtd"
   xmlns:inkscape="http://www.inkscape.org/namespaces/inkscape"
   version="1.1"
   id="svg83"
   width="230"
   height="355"
   viewBox="0 0 230 355"
   sodipodi:docname="add_card_skill.svg"
   inkscape:version="0.92.1 r15371">
  <metadata
     id="metadata89">
    <rdf:RDF>
      <cc:Work
         rdf:about="">
        <dc:format>image/svg+xml</dc:format>
        <dc:type
           rdf:resource="http://purl.org/dc/dcmitype/StillImage" />
        <dc:title />
      </cc:Work>
    </rdf:RDF>
  </metadata>
  <defs
     id="defs87" />
  <sodipodi:namedview
     pagecolor="#ffffff"
     bordercolor="#666666"
     borderopacity="1"
     objecttolerance="10"
     gridtolerance="10"
     guidetolerance="10"
     inkscape:pageopacity="0"
     inkscape:pageshadow="2"
     inkscape:window-width="1794"
     inkscape:window-height="1057"
     id="namedview85"
     showgrid="false"
     inkscape:zoom="1.8803065"
     inkscape:cx="314.13293"
     inkscape:cy="205.89234"
     inkscape:window-x="118"
     inkscape:window-y="-8"
     inkscape:window-maximized="1"
     inkscape:current-layer="svg83" />
  <path
     d="M 255.68645,0.63161252 H -30.050843 V 357.48145 H 255.68645 Z"
     id="path4"
     inkscape:connector-curvature="0"
     style="fill:none;stroke-width:13.30500031" />
  <g
     transform="matrix(0.13294522,0,0,0.11066341,92.73418,118.17264)"
     id="g6">
    <path
       inkscape:connector-curvature="0"
       d="m 800.2,460.8 -0.5,22.8 c -1.8,25.5 -8.3,69.8 -30.8,119.7 7.1,-33.3 10.9,-67.8 10.9,-103.2 0,-26.5 -2.1,-52.4 -6.1,-77.8 C 740.7,214.7 577.6,50.6 370.9,16.5 346.2,10.6 331.7,9.9 331.7,9.9 c 0.5,0.6 1,1.2 1.5,1.8 86.3,103.2 96.5,211.4 82.6,288.4 -5,27.6 -13.1,51.2 -21.9,69.1 0,0 7.3,-30.4 6.6,-65 -0.6,-31.1 -7.8,-65.6 -32.8,-84.3 7.7,40.2 -1.6,73.3 -20,104.4 -54.1,92 -186.9,161.1 -197.8,331.7 v 8.4 c 0,117.5 56.1,216.5 150.3,273.5 -15,-27 -32.7,-77 -19.1,-131.6 8.7,51.8 21.8,78.8 45.7,113.2 17.8,25.6 41.8,42.2 72.4,54.5 30.6,12.4 63.5,15.8 100.5,15.8 122.1,0 230.2,-62.5 292.8,-157.4 l 0.6,0.1 v 0 c 35,-55.2 57.1,-121.4 57.1,-192.5 -0.1,-65.4 -18.7,-126.7 -50,-179.2 z"
       id="path4-6" />
  </g>
  <rect
     style="fill:#ffffff"
     id="rect40"
     width="3.4568832"
     height="39.887115"
     x="160.47351"
     y="162.73282" />
  <rect
     style="fill:#ffffff"
     id="rect40-5"
     width="3.4568832"
     height="39.887115"
     x="181.35245"
     y="-182.27847"
     transform="rotate(90)" />
</svg>
