<?xml version="1.0" encoding="UTF-8" standalone="no"?>
<!-- Created with Inkscape (http://www.inkscape.org/) -->

<svg
   xmlns:dc="http://purl.org/dc/elements/1.1/"
   xmlns:cc="http://creativecommons.org/ns#"
   xmlns:rdf="http://www.w3.org/1999/02/22-rdf-syntax-ns#"
   xmlns:svg="http://www.w3.org/2000/svg"
   xmlns="http://www.w3.org/2000/svg"
   xmlns:sodipodi="http://sodipodi.sourceforge.net/DTD/sodipodi-0.dtd"
   xmlns:inkscape="http://www.inkscape.org/namespaces/inkscape"
   version="1.1"
   id="svg83"
   width="230"
   height="355"
   viewBox="0 0 230 355"
   sodipodi:docname="add_card_skill.svg"
   inkscape:version="0.92.1 r15371">
  <metadata
     id="metadata89">
    <rdf:RDF>
      <cc:Work
         rdf:about="">
        <dc:format>image/svg+xml</dc:format>
        <dc:type
           rdf:resource="http://purl.org/dc/dcmitype/StillImage" />
        <dc:title></dc:title>
      </cc:Work>
    </rdf:RDF>
  </metadata>
  <defs
     id="defs87" />
  <sodipodi:namedview
     pagecolor="#ffffff"
     bordercolor="#666666"
     borderopacity="1"
     objecttolerance="10"
     gridtolerance="10"
     guidetolerance="10"
     inkscape:pageopacity="0"
     inkscape:pageshadow="2"
     inkscape:window-width="1794"
     inkscape:window-height="1057"
     id="namedview85"
     showgrid="false"
     inkscape:zoom="0.47007662"
     inkscape:cx="-507.1895"
     inkscape:cy="400.66594"
     inkscape:window-x="118"
     inkscape:window-y="-8"
     inkscape:window-maximized="1"
     inkscape:current-layer="svg83" />
  <path
     d="M 27.387349,1.6036807 H 205.71779 c 14.1391,0 25.47586,17.7647233 25.47586,39.4770973 V 317.42061 c 0,21.71237 -11.33676,39.47709 -25.47586,39.47709 H 27.387349 c -14.011602,0 -25.4757386,-17.76472 -25.4757386,-39.47709 V 41.080778 c 0,-21.712374 11.4641366,-39.4770973 25.4757386,-39.4770973 z M 52.86321,198.98931 h 50.95149 v 78.9542 h 25.47585 v -78.9542 h 50.95149 V 159.51207 H 129.29055 V 80.557874 H 103.8147 V 159.51207 H 52.86321 Z"
     id="path2"
     inkscape:connector-curvature="0"
     style="stroke-width:15.85646152" />
  <path
     d="M 255.68645,0.63161252 H -30.050843 V 357.48145 H 255.68645 Z"
     id="path4"
     inkscape:connector-curvature="0"
     style="fill:none;stroke-width:13.30500031" />
  <path
     style="fill:none;stroke:#000000;stroke-width:15.85646152px;stroke-linecap:butt;stroke-linejoin:miter;stroke-opacity:1"
     d="M 29.7623,28.200618 204.63829,27.698411"
     id="path16"
     inkscape:connector-curvature="0" />
  <path
     style="fill:none;stroke:#000000;stroke-width:15.85646152px;stroke-linecap:butt;stroke-linejoin:miter;stroke-opacity:1"
     d="m 27.495342,41.248131 0.32383,276.005119 178.114458,1.50544 V 40.746219 Z"
     id="path28"
     inkscape:connector-curvature="0" />
  <path
     style="fill:none;stroke:#000000;stroke-width:15.85646152px;stroke-linecap:butt;stroke-linejoin:miter;stroke-opacity:1"
     d="m 36.88681,34.724302 -0.647672,76.277868 24.288384,-6.02192 c 0,0 0.323831,-46.168131 0,-48.175486 C 60.203682,54.797409 36.88681,34.724302 36.88681,34.724302 Z"
     id="path34"
     inkscape:connector-curvature="0" />
  <path
     style="stroke-width:0.40313008"
     d="m 24.477473,356.37202 c -7.37654,-1.35597 -14.2927,-8.12928 -18.4314872,-18.05218 -1.5354735,-3.68133 -3.0654804,-9.59969 -3.5605149,-13.77231 -0.498858,-4.20954 -0.498858,-286.415305 0,-290.624841 C 4.270139,18.878752 12.151604,6.3282771 22.048709,2.7704284 24.540096,1.8753164 28.170036,1.8383897 116.77325,1.8383897 h 92.13372 l 2.74118,1.1314446 c 9.32503,3.8514923 15.87067,13.7590227 18.54827,28.0746107 l 0.7322,3.913826 V 179.23378 323.50914 l -0.7322,3.91397 c -2.65342,14.18664 -9.05347,23.96227 -18.37483,28.06605 l -2.59079,1.1403 -91.32412,0.0591 c -50.228347,0.0295 -92.271489,-0.10341 -93.429207,-0.32348 z M 129.40318,238.70172 v -39.3935 h 25.42181 25.42182 V 179.23511 159.162 H 154.82499 129.40318 V 119.76851 80.375012 H 116.61132 103.81945 V 119.76851 159.162 H 78.235734 52.652004 v 20.07311 20.07311 h 25.58373 25.583716 v 39.3935 39.39333 h 12.79187 12.79186 z"
     id="path36"
     inkscape:connector-curvature="0" />
  <path
     style="stroke-width:0.40313008"
     d="m 24.416037,356.36255 c -3.125605,-0.57015 -5.532579,-1.76688 -8.844278,-4.39608 -2.347216,-1.86348 -3.481946,-3.19834 -5.8291637,-6.85721 -3.9938948,-6.22561 -6.0796494,-11.99465 -7.1402107,-19.74904 -0.688151,-5.03257 -0.688151,-287.217655 0,-292.250222 C 4.6054037,18.46502 11.947064,6.8189635 21.724755,2.7763368 23.913146,1.8708854 27.207333,1.8383897 116.77325,1.8383897 h 92.78139 l 2.85226,1.3855032 c 6.21896,3.0224055 10.78194,8.0560081 14.09899,15.5533821 1.36344,3.081342 3.1131,8.845805 3.84554,12.668198 0.54647,2.851803 0.58218,10.533814 0.67267,145.279187 0.0714,101.53036 -0.006,143.38231 -0.26073,146.15937 -1.44583,15.79297 -8.65022,28.1628 -19.10344,32.80173 -2.02875,0.89954 -5.41721,0.93647 -93.59111,1.00293 -50.317263,0.0295 -92.461018,-0.10339 -93.652538,-0.32791 z M 129.40318,238.70172 v -39.3935 h 25.42181 25.42182 V 179.23511 159.162 H 154.82499 129.40318 V 119.76851 80.375012 H 116.61132 103.81945 V 119.76851 159.162 H 78.235734 52.652004 v 20.07311 20.07311 h 25.58373 25.583716 v 39.3935 39.39333 h 12.79187 12.79186 z"
     id="path38"
     inkscape:connector-curvature="0" />
  <path
     style="stroke-width:0.28051499"
     d="m 78.568854,356.36255 c -1.513452,-0.57015 -2.678904,-1.76688 -4.282369,-4.39608 -1.136995,-1.86348 -1.685965,-3.19834 -2.822485,-6.85721 -1.933851,-6.22561 -2.943811,-11.99465 -3.457303,-19.74904 -0.333364,-5.03257 -0.333364,-287.217655 0,-292.250222 0.464323,-7.003144 1.451661,-13.01546 3.051081,-18.568699 1.611076,-5.5944506 3.871025,-9.8787274 6.23633,-11.8233073 1.006039,-0.8271661 3.70792,-0.8788643 46.072032,-0.8788643 h 45.00292 l 1.33273,1.4386786 c 2.87583,3.1039409 4.92242,7.623814 6.4623,14.271866 0.73459,3.170706 1.73132,9.710784 2.11863,13.897426 0.26311,2.848111 0.28098,10.710474 0.32501,145.279192 0.0358,103.72117 -0.001,143.34938 -0.13215,146.25863 -0.68577,15.45502 -4.21235,28.11775 -9.06596,32.55165 l -1.19855,1.09452 -44.29725,0.0591 c -24.363394,0.0295 -44.769206,-0.11817 -45.346155,-0.33234 z M 129.40318,238.70172 v -39.3935 h 12.3091 12.30908 V 179.23511 159.162 h -12.30908 -12.3091 V 119.76851 80.375012 h -6.19382 -6.19373 V 119.76851 159.162 H 104.62809 92.240547 v 20.07311 20.07311 h 12.387543 12.38754 v 39.3935 39.39333 h 6.19373 6.19382 z"
     id="path40"
     inkscape:connector-curvature="0" />
  <rect
     style="fill:#ffffff;stroke-width:16.55779266"
     id="rect68"
     width="178.43837"
     height="302.60199"
     x="27.495478"
     y="28.200809" />
  <rect
     style="fill:#ffffff;stroke-width:15.85646152"
     id="rect70"
     width="49.548229"
     height="158.07568"
     x="0.94014466"
     y="100.46371" />
  <rect
     style="fill:#ffffff;stroke-width:17.46016312"
     id="rect72"
     width="49.868275"
     height="158.07568"
     x="189.68039"
     y="99.962006" />
  <rect
     style="fill:#ffffff;stroke-width:15.85646152"
     id="rect74"
     width="102.33488"
     height="382.39261"
     x="65.709099"
     y="-6.9272289" />
  <g
     transform="matrix(0.13294522,0,0,0.11066341,54.869645,125.64081)"
     id="g6">
    <path
       inkscape:connector-curvature="0"
       d="m 800.2,460.8 -0.5,22.8 c -1.8,25.5 -8.3,69.8 -30.8,119.7 7.1,-33.3 10.9,-67.8 10.9,-103.2 0,-26.5 -2.1,-52.4 -6.1,-77.8 C 740.7,214.7 577.6,50.6 370.9,16.5 346.2,10.6 331.7,9.9 331.7,9.9 c 0.5,0.6 1,1.2 1.5,1.8 86.3,103.2 96.5,211.4 82.6,288.4 -5,27.6 -13.1,51.2 -21.9,69.1 0,0 7.3,-30.4 6.6,-65 -0.6,-31.1 -7.8,-65.6 -32.8,-84.3 7.7,40.2 -1.6,73.3 -20,104.4 -54.1,92 -186.9,161.1 -197.8,331.7 v 8.4 c 0,117.5 56.1,216.5 150.3,273.5 -15,-27 -32.7,-77 -19.1,-131.6 8.7,51.8 21.8,78.8 45.7,113.2 17.8,25.6 41.8,42.2 72.4,54.5 30.6,12.4 63.5,15.8 100.5,15.8 122.1,0 230.2,-62.5 292.8,-157.4 l 0.6,0.1 v 0 c 35,-55.2 57.1,-121.4 57.1,-192.5 -0.1,-65.4 -18.7,-126.7 -50,-179.2 z"
       id="path4-6" />
  </g>
</svg>
