<?xml version="1.0" encoding="UTF-8" standalone="no"?>
<!-- Created with Inkscape (http://www.inkscape.org/) -->

<svg
   xmlns:dc="http://purl.org/dc/elements/1.1/"
   xmlns:cc="http://creativecommons.org/ns#"
   xmlns:rdf="http://www.w3.org/1999/02/22-rdf-syntax-ns#"
   xmlns:svg="http://www.w3.org/2000/svg"
   xmlns="http://www.w3.org/2000/svg"
   xmlns:sodipodi="http://sodipodi.sourceforge.net/DTD/sodipodi-0.dtd"
   xmlns:inkscape="http://www.inkscape.org/namespaces/inkscape"
   version="1.1"
   id="svg83"
   width="230"
   height="355"
   viewBox="0 0 230 355"
   sodipodi:docname="add_card.svg"
   inkscape:version="0.92.1 r15371">
  <metadata
     id="metadata89">
    <rdf:RDF>
      <cc:Work
         rdf:about="">
        <dc:format>image/svg+xml</dc:format>
        <dc:type
           rdf:resource="http://purl.org/dc/dcmitype/StillImage" />
        <dc:title />
      </cc:Work>
    </rdf:RDF>
  </metadata>
  <defs
     id="defs87" />
  <sodipodi:namedview
     pagecolor="#ffffff"
     bordercolor="#666666"
     borderopacity="1"
     objecttolerance="10"
     gridtolerance="10"
     guidetolerance="10"
     inkscape:pageopacity="0"
     inkscape:pageshadow="2"
     inkscape:window-width="1794"
     inkscape:window-height="1057"
     id="namedview85"
     showgrid="false"
     inkscape:zoom="0.66478873"
     inkscape:cx="-84.077103"
     inkscape:cy="102.88685"
     inkscape:window-x="118"
     inkscape:window-y="-8"
     inkscape:window-maximized="1"
     inkscape:current-layer="svg83" />
  <path
     d="M 30.985274,1.6036807 H 201.80528 c 13.54364,0 24.40294,17.7647233 24.40294,39.4770973 V 317.42061 c 0,21.71237 -10.8593,39.47709 -24.40294,39.47709 H 30.985274 c -13.4215,0 -24.4028213,-17.76472 -24.4028213,-39.47709 V 41.080778 c 0,-21.712374 10.9813213,-39.4770973 24.4028213,-39.4770973 z M 55.388213,198.98931 h 48.805657 v 78.9542 h 24.40293 v -78.9542 h 48.80565 V 159.51207 H 128.5968 V 80.557874 H 104.19387 V 159.51207 H 55.388213 Z"
     id="path2"
     inkscape:connector-curvature="0"
     style="stroke-width:15.51897049" />
  <path
     d="M 249.6695,0.63161252 H -24.033894 V 357.48145 H 249.6695 Z"
     id="path4"
     inkscape:connector-curvature="0"
     style="fill:none;stroke-width:13.0218153" />
  <path
     style="fill:none;stroke:#000000;stroke-width:15.51897049px;stroke-linecap:butt;stroke-linejoin:miter;stroke-opacity:1"
     d="M 33.260203,28.200618 200.77124,27.698411"
     id="path16"
     inkscape:connector-curvature="0" />
  <path
     style="fill:none;stroke:#000000;stroke-width:15.51897049px;stroke-linecap:butt;stroke-linejoin:miter;stroke-opacity:1"
     d="m 31.088719,41.248131 0.310192,276.005119 170.613129,1.50544 V 40.746219 Z"
     id="path28"
     inkscape:connector-curvature="0" />
  <path
     style="fill:none;stroke:#000000;stroke-width:15.51897049px;stroke-linecap:butt;stroke-linejoin:miter;stroke-opacity:1"
     d="m 40.084663,34.724302 -0.620395,76.277868 23.265473,-6.02192 c 0,0 0.310193,-46.168131 0,-48.175486 C 62.419539,54.797409 40.084663,34.724302 40.084663,34.724302 Z"
     id="path34"
     inkscape:connector-curvature="0" />
  <path
     style="stroke-width:0.39454982"
     d="M 28.197948,356.37202 C 21.132074,355.01605 14.507189,348.24274 10.542708,338.31984 9.0719012,334.63851 7.606331,328.72015 7.132145,324.54753 6.6542965,320.33799 6.6542965,38.132225 7.132145,33.922689 8.8416513,18.878752 16.391187,6.3282771 25.871472,2.7704284 28.257934,1.8753164 31.734998,1.8383897 116.60666,1.8383897 h 88.25349 l 2.62573,1.1314446 c 8.93231,3.8514923 15.20227,13.7590227 17.76711,28.0746107 l 0.70136,3.913826 V 179.23378 323.50914 l -0.70136,3.91397 c -2.54167,14.18664 -8.67219,23.96227 -17.60097,28.06605 l -2.48167,1.1403 -87.47799,0.0591 c -48.112966,0.0295 -88.385452,-0.10341 -89.494412,-0.32348 z M 128.70469,238.70172 v -39.3935 h 24.35115 24.35118 V 179.23511 159.162 H 153.05584 128.70469 V 119.76851 80.375012 H 116.45155 104.19842 V 119.76851 159.162 H 79.692167 55.185902 v 20.07311 20.07311 h 24.506265 24.506253 v 39.3935 39.39333 h 12.25313 12.25314 z"
     id="path36"
     inkscape:connector-curvature="0" />
  <path
     style="stroke-width:0.39454982"
     d="m 28.1391,356.36255 c -2.993969,-0.57015 -5.299573,-1.76688 -8.4718,-4.39608 -2.248362,-1.86348 -3.335302,-3.19834 -5.583666,-6.85721 -3.825691,-6.22561 -5.8236037,-11.99465 -6.8394992,-19.74904 -0.6591693,-5.03257 -0.6591693,-287.217655 0,-292.250222 C 9.1627963,18.46502 16.195261,6.8189635 25.561162,2.7763368 27.657388,1.8708854 30.81284,1.8383897 116.60666,1.8383897 h 88.87389 l 2.73213,1.3855032 c 5.95705,3.0224055 10.32785,8.0560081 13.5052,15.5533821 1.30602,3.081342 2.982,8.845805 3.6836,12.668198 0.52345,2.851803 0.55766,10.533814 0.64433,145.279187 0.0684,101.53036 -0.006,143.38231 -0.24975,146.15937 -1.38493,15.79297 -8.28592,28.1628 -18.2989,32.80173 -1.9433,0.89954 -5.18905,0.93647 -89.64949,1.00293 -48.198136,0.0295 -88.566997,-0.10339 -89.708335,-0.32791 z M 128.70469,238.70172 v -39.3935 h 24.35115 24.35118 V 179.23511 159.162 H 153.05584 128.70469 V 119.76851 80.375012 H 116.45155 104.19842 V 119.76851 159.162 H 79.692167 55.185902 v 20.07311 20.07311 h 24.506265 24.506253 v 39.3935 39.39333 h 12.25313 12.25314 z"
     id="path38"
     inkscape:connector-curvature="0" />
  <path
     style="stroke-width:0.27454448"
     d="m 80.011257,356.36255 c -1.449712,-0.57015 -2.566081,-1.76688 -4.102015,-4.39608 -1.089111,-1.86348 -1.614961,-3.19834 -2.703616,-6.85721 -1.852406,-6.22561 -2.819832,-11.99465 -3.311698,-19.74904 -0.319324,-5.03257 -0.319324,-287.217655 0,-292.250222 0.444768,-7.003144 1.390524,-13.01546 2.922584,-18.568699 1.543225,-5.5944506 3.707996,-9.8787274 5.973685,-11.8233073 0.963669,-0.8271661 3.55176,-0.8788643 44.131693,-0.8788643 h 43.10762 l 1.27659,1.4386786 c 2.75472,3.1039409 4.71512,7.623814 6.19014,14.271866 0.70365,3.170706 1.65841,9.710784 2.02941,13.897426 0.25203,2.848111 0.26914,10.710474 0.31132,145.279192 0.0342,103.72117 -9.5e-4,143.34938 -0.12658,146.25863 -0.65689,15.45502 -4.03495,28.11775 -8.68414,32.55165 l -1.14809,1.09452 -42.43165,0.0591 c -23.33732,0.0295 -42.883741,-0.11817 -43.436392,-0.33234 z M 128.70469,238.70172 v -39.3935 h 11.7907 11.79068 V 179.23511 159.162 h -11.79068 -11.7907 V 119.76851 80.375012 h -5.93298 -5.93287 V 119.76851 159.162 H 104.973 93.107164 v 20.07311 20.07311 H 104.973 116.83884 v 39.3935 39.39333 h 5.93287 5.93298 z"
     id="path40"
     inkscape:connector-curvature="0" />
  <rect
     style="fill:#ffffff;stroke-width:16.20537567"
     id="rect68"
     width="170.92339"
     height="302.60199"
     x="31.08885"
     y="28.200809" />
  <rect
     style="fill:#ffffff;stroke-width:15.51897049"
     id="rect70"
     width="47.461491"
     height="158.07568"
     x="5.6519003"
     y="100.46371" />
  <rect
     style="fill:#ffffff;stroke-width:17.08853912"
     id="rect72"
     width="47.768063"
     height="158.07568"
     x="186.44331"
     y="99.962006" />
  <rect
     style="fill:#ffffff;stroke-width:15.51897049"
     id="rect74"
     width="98.025017"
     height="382.39261"
     x="67.693092"
     y="-6.9272289" />
  <path
     inkscape:connector-curvature="0"
     d="m 120.19935,131.44204 c -18.5499,0 -33.604846,20.26941 -33.604846,45.24422 0,24.97466 15.054946,45.24407 33.604846,45.24407 18.54979,0 33.60473,-20.26941 33.60473,-45.24407 0,-24.97481 -15.05494,-45.24422 -33.60473,-45.24422 z m 16.80232,49.76852 h -13.44193 v 18.09766 h -6.7209 v -18.09766 h -13.4419 v -9.04876 h 13.4419 v -18.09765 h 6.7209 v 18.09765 h 13.44193 z"
     id="path4-2"
     style="stroke-width:3.89925385" />
</svg>
