<?xml version="1.0" encoding="UTF-8" standalone="no"?>
<!-- Created with Inkscape (http://www.inkscape.org/) -->

<svg
   xmlns:dc="http://purl.org/dc/elements/1.1/"
   xmlns:cc="http://creativecommons.org/ns#"
   xmlns:rdf="http://www.w3.org/1999/02/22-rdf-syntax-ns#"
   xmlns:svg="http://www.w3.org/2000/svg"
   xmlns="http://www.w3.org/2000/svg"
   xmlns:sodipodi="http://sodipodi.sourceforge.net/DTD/sodipodi-0.dtd"
   xmlns:inkscape="http://www.inkscape.org/namespaces/inkscape"
   version="1.1"
   id="svg83"
   width="230"
   height="355"
   viewBox="0 0 230 355"
   sodipodi:docname="add_card_weapon.svg"
   inkscape:version="0.92.1 r15371">
  <metadata
     id="metadata89">
    <rdf:RDF>
      <cc:Work
         rdf:about="">
        <dc:format>image/svg+xml</dc:format>
        <dc:type
           rdf:resource="http://purl.org/dc/dcmitype/StillImage" />
        <dc:title></dc:title>
      </cc:Work>
    </rdf:RDF>
  </metadata>
  <defs
     id="defs87" />
  <sodipodi:namedview
     pagecolor="#ffffff"
     bordercolor="#666666"
     borderopacity="1"
     objecttolerance="10"
     gridtolerance="10"
     guidetolerance="10"
     inkscape:pageopacity="0"
     inkscape:pageshadow="2"
     inkscape:window-width="1794"
     inkscape:window-height="1057"
     id="namedview85"
     showgrid="false"
     inkscape:zoom="0.33239437"
     inkscape:cx="-46.871567"
     inkscape:cy="-394.84404"
     inkscape:window-x="118"
     inkscape:window-y="-8"
     inkscape:window-maximized="1"
     inkscape:current-layer="svg83" />
  <path
     d="M 27.387349,1.6036807 H 205.71779 c 14.1391,0 25.47586,17.7647233 25.47586,39.4770973 V 317.42061 c 0,21.71237 -11.33676,39.47709 -25.47586,39.47709 H 27.387349 c -14.011602,0 -25.4757386,-17.76472 -25.4757386,-39.47709 V 41.080778 c 0,-21.712374 11.4641366,-39.4770973 25.4757386,-39.4770973 z M 52.86321,198.98931 h 50.95149 v 78.9542 h 25.47585 v -78.9542 h 50.95149 V 159.51207 H 129.29055 V 80.557874 H 103.8147 V 159.51207 H 52.86321 Z"
     id="path2"
     inkscape:connector-curvature="0"
     style="stroke-width:15.85646152" />
  <path
     d="M 255.68645,0.63161252 H -30.050843 V 357.48145 H 255.68645 Z"
     id="path4"
     inkscape:connector-curvature="0"
     style="fill:none;stroke-width:13.30500031" />
  <path
     style="fill:none;stroke:#000000;stroke-width:15.85646152px;stroke-linecap:butt;stroke-linejoin:miter;stroke-opacity:1"
     d="M 29.7623,28.200618 204.63829,27.698411"
     id="path16"
     inkscape:connector-curvature="0" />
  <path
     style="fill:none;stroke:#000000;stroke-width:15.85646152px;stroke-linecap:butt;stroke-linejoin:miter;stroke-opacity:1"
     d="m 27.495342,41.248131 0.32383,276.005119 178.114458,1.50544 V 40.746219 Z"
     id="path28"
     inkscape:connector-curvature="0" />
  <path
     style="fill:none;stroke:#000000;stroke-width:15.85646152px;stroke-linecap:butt;stroke-linejoin:miter;stroke-opacity:1"
     d="m 36.88681,34.724302 -0.647672,76.277868 24.288384,-6.02192 c 0,0 0.323831,-46.168131 0,-48.175486 C 60.203682,54.797409 36.88681,34.724302 36.88681,34.724302 Z"
     id="path34"
     inkscape:connector-curvature="0" />
  <path
     style="stroke-width:0.40313008"
     d="m 24.477473,356.37202 c -7.37654,-1.35597 -14.2927,-8.12928 -18.4314872,-18.05218 -1.5354735,-3.68133 -3.0654804,-9.59969 -3.5605149,-13.77231 -0.498858,-4.20954 -0.498858,-286.415305 0,-290.624841 C 4.270139,18.878752 12.151604,6.3282771 22.048709,2.7704284 24.540096,1.8753164 28.170036,1.8383897 116.77325,1.8383897 h 92.13372 l 2.74118,1.1314446 c 9.32503,3.8514923 15.87067,13.7590227 18.54827,28.0746107 l 0.7322,3.913826 V 179.23378 323.50914 l -0.7322,3.91397 c -2.65342,14.18664 -9.05347,23.96227 -18.37483,28.06605 l -2.59079,1.1403 -91.32412,0.0591 c -50.228347,0.0295 -92.271489,-0.10341 -93.429207,-0.32348 z M 129.40318,238.70172 v -39.3935 h 25.42181 25.42182 V 179.23511 159.162 H 154.82499 129.40318 V 119.76851 80.375012 H 116.61132 103.81945 V 119.76851 159.162 H 78.235734 52.652004 v 20.07311 20.07311 h 25.58373 25.583716 v 39.3935 39.39333 h 12.79187 12.79186 z"
     id="path36"
     inkscape:connector-curvature="0" />
  <path
     style="stroke-width:0.40313008"
     d="m 24.416037,356.36255 c -3.125605,-0.57015 -5.532579,-1.76688 -8.844278,-4.39608 -2.347216,-1.86348 -3.481946,-3.19834 -5.8291637,-6.85721 -3.9938948,-6.22561 -6.0796494,-11.99465 -7.1402107,-19.74904 -0.688151,-5.03257 -0.688151,-287.217655 0,-292.250222 C 4.6054037,18.46502 11.947064,6.8189635 21.724755,2.7763368 23.913146,1.8708854 27.207333,1.8383897 116.77325,1.8383897 h 92.78139 l 2.85226,1.3855032 c 6.21896,3.0224055 10.78194,8.0560081 14.09899,15.5533821 1.36344,3.081342 3.1131,8.845805 3.84554,12.668198 0.54647,2.851803 0.58218,10.533814 0.67267,145.279187 0.0714,101.53036 -0.006,143.38231 -0.26073,146.15937 -1.44583,15.79297 -8.65022,28.1628 -19.10344,32.80173 -2.02875,0.89954 -5.41721,0.93647 -93.59111,1.00293 -50.317263,0.0295 -92.461018,-0.10339 -93.652538,-0.32791 z M 129.40318,238.70172 v -39.3935 h 25.42181 25.42182 V 179.23511 159.162 H 154.82499 129.40318 V 119.76851 80.375012 H 116.61132 103.81945 V 119.76851 159.162 H 78.235734 52.652004 v 20.07311 20.07311 h 25.58373 25.583716 v 39.3935 39.39333 h 12.79187 12.79186 z"
     id="path38"
     inkscape:connector-curvature="0" />
  <path
     style="stroke-width:0.28051499"
     d="m 78.568854,356.36255 c -1.513452,-0.57015 -2.678904,-1.76688 -4.282369,-4.39608 -1.136995,-1.86348 -1.685965,-3.19834 -2.822485,-6.85721 -1.933851,-6.22561 -2.943811,-11.99465 -3.457303,-19.74904 -0.333364,-5.03257 -0.333364,-287.217655 0,-292.250222 0.464323,-7.003144 1.451661,-13.01546 3.051081,-18.568699 1.611076,-5.5944506 3.871025,-9.8787274 6.23633,-11.8233073 1.006039,-0.8271661 3.70792,-0.8788643 46.072032,-0.8788643 h 45.00292 l 1.33273,1.4386786 c 2.87583,3.1039409 4.92242,7.623814 6.4623,14.271866 0.73459,3.170706 1.73132,9.710784 2.11863,13.897426 0.26311,2.848111 0.28098,10.710474 0.32501,145.279192 0.0358,103.72117 -0.001,143.34938 -0.13215,146.25863 -0.68577,15.45502 -4.21235,28.11775 -9.06596,32.55165 l -1.19855,1.09452 -44.29725,0.0591 c -24.363394,0.0295 -44.769206,-0.11817 -45.346155,-0.33234 z M 129.40318,238.70172 v -39.3935 h 12.3091 12.30908 V 179.23511 159.162 h -12.30908 -12.3091 V 119.76851 80.375012 h -6.19382 -6.19373 V 119.76851 159.162 H 104.62809 92.240547 v 20.07311 20.07311 h 12.387543 12.38754 v 39.3935 39.39333 h 6.19373 6.19382 z"
     id="path40"
     inkscape:connector-curvature="0" />
  <rect
     style="fill:#ffffff;stroke-width:16.55779266"
     id="rect68"
     width="178.43837"
     height="302.60199"
     x="27.495478"
     y="28.200809" />
  <rect
     style="fill:#ffffff;stroke-width:15.85646152"
     id="rect70"
     width="49.548229"
     height="158.07568"
     x="0.94014466"
     y="100.46371" />
  <rect
     style="fill:#ffffff;stroke-width:17.46016312"
     id="rect72"
     width="49.868275"
     height="158.07568"
     x="189.68039"
     y="99.962006" />
  <rect
     style="fill:#ffffff;stroke-width:15.85646152"
     id="rect74"
     width="102.33488"
     height="382.39261"
     x="65.709099"
     y="-6.9272289" />
  <path
     inkscape:connector-curvature="0"
     d="m 168.49877,210.49341 c 0,0 -52.038,-51.801 -56.925,-67.15 -1.063,-3.339 -3.494,-5.481 -3.494,-5.481 l -8.365995,6.951 c 1.920995,2.588 3.612995,2.902 6.512995,5.374 3.665,3.124 41.06,42.919 49.677,63.759 2.331,5.638 10.648,2.817 12.991,0.875 2.274,-1.886 -0.396,-4.328 -0.396,-4.328 z m -1.198,3.051 c -0.333,0.65 -0.713,0.832 -0.691,0.846 -0.023,-0.013 0.352,-0.213 0.654,-0.862 0.14,-0.324 0.196,-0.779 0.051,-1.271 -0.143,-0.49 -0.455,-1.007 -0.903,-1.488 -1.893,-1.875 -4.677,-4.501 -7.837,-7.817 -6.374,-6.584 -14.784,-15.451 -22.916,-24.574 -8.12,-9.126 -16.009,-18.494 -21.098,-26.149 -1.269,-1.913 -2.342,-3.734 -3.122,-5.437 -0.402,-0.844 -0.722,-1.664 -0.959,-2.441 -0.224,-0.78 -0.418,-1.483 -0.708,-2.083 -0.56,-1.206 -1.216,-2.041 -1.691,-2.571 -0.481,-0.529 -0.786,-0.764 -0.786,-0.764 0,0 0.312,0.224 0.812,0.739 0.494,0.516 1.182,1.332 1.789,2.536 0.314,0.598 0.54,1.319 0.784,2.078 0.258,0.755 0.599,1.552 1.025,2.375 0.838,1.651 1.952,3.427 3.193,5.343 5.065,7.62 12.949,16.985 21.062,26.103 8.126,9.116 16.533,17.981 22.904,24.561 1.601,1.637 3.058,3.149 4.331,4.506 1.286,1.347 2.407,2.522 3.33,3.489 0.443,0.513 0.745,1.055 0.874,1.568 0.133,0.518 0.057,0.988 -0.098,1.313 z"
     id="path2-6" />
  <path
     inkscape:connector-curvature="0"
     d="m 105.48177,129.95341 c -0.086,-0.042 -0.31,0.035 -0.632,0.2 0.118,0.115 0.247,0.244 0.394,0.398 0.475,0.5 1.078,1.186 1.658,1.892 0.58,0.705 1.137,1.43 1.514,2.003 0.189,0.286 0.332,0.535 0.404,0.722 0.091,0.192 0.022,0.308 0.015,0.3 0.008,0.006 0.068,-0.109 -0.033,-0.292 -0.082,-0.18 -0.239,-0.418 -0.444,-0.69 -0.409,-0.544 -1.007,-1.23 -1.626,-1.895 -0.619,-0.665 -1.26,-1.309 -1.755,-1.77 -0.205,-0.191 -0.375,-0.339 -0.516,-0.455 -3.169,1.839 -12.481995,9.15 -14.359995,10.695 -1.671,1.375 -6.749,4.938 -9.085,6.566 0.03,0.095 0.064,0.202 0.103,0.324 0.075,0.247 0.164,0.548 0.329,0.871 0.161,0.323 0.297,0.71 0.528,1.093 0.233,0.38 0.451,0.814 0.745,1.234 0.303,0.413 0.583,0.879 0.946,1.307 0.694,0.88 1.481,1.787 2.338,2.625 0.84,0.857 1.745,1.647 2.601,2.378 0.872,0.711 1.701,1.36 2.44,1.875 0.731,0.528 1.371,0.922 1.824,1.19 0.455,0.265 0.749,0.343 0.749,0.343 0,0 -0.293,-0.071 -0.757,-0.328 -0.458,-0.259 -1.108,-0.64 -1.851,-1.153 -0.752,-0.5 -1.595,-1.133 -2.485,-1.828 -0.874,-0.714 -1.799,-1.489 -2.662,-2.333 -0.88,-0.825 -1.693,-1.722 -2.413,-2.597 -0.376,-0.425 -0.67,-0.892 -0.987,-1.305 -0.307,-0.421 -0.54,-0.859 -0.786,-1.242 -0.243,-0.386 -0.394,-0.781 -0.565,-1.111 -0.176,-0.329 -0.276,-0.639 -0.36,-0.894 -0.027,-0.08 -0.049,-0.146 -0.073,-0.215 -0.535,0.373 -0.868,0.603 -0.868,0.603 1.837,6.824 14.299,14.832 14.28,13.934 -0.291,-13.399 2.508,-15.878 3.495,-16.835 1.098,-1.063 11.800995,-9.713 12.365995,-10.178 0.565,-0.465 -3.659,-5.034 -4.471,-5.432 z"
     id="path4-9" />
  <path
     inkscape:connector-curvature="0"
     d="m 101.34677,131.23141 0.673,-0.507 c 0,0 -0.187,-0.227 -0.618,-0.751 -0.075,-0.091 -0.393,0.026 -0.847,0.268 0.448,0.411 0.739,0.896 0.792,0.99 z"
     id="path6" />
  <path
     inkscape:connector-curvature="0"
     d="m 100.18577,130.44941 c -2.372995,1.387 -7.329995,5.227 -6.953995,5.764 0.479,0.686 0.571,0.693 0.571,0.693 l 7.379995,-5.552 -0.175,0.096 c -0.005,-0.007 -0.334,-0.596 -0.822,-1.001 z"
     id="path8" />
  <path
     inkscape:connector-curvature="0"
     d="m 101.34677,131.23141 -0.165,0.124 0.18,-0.099 c -0.001,-0.002 -0.011,-0.018 -0.015,-0.025 z"
     id="path10" />
  <g
     id="g4"
     transform="matrix(0,0.19782448,-0.20533503,0,169.80412,130.27111)">
    <path
       d="m 434.21664,395.1937 c -6.767,-6.765 -16.137,-9.325 -24.881,-7.7 -7.023,-12.564 -18.734,-27.695 -33.549,-42.502 -12.826,-12.826 -25.886,-23.321 -37.319,-30.473 13.363,-15.257 22.938,-29.971 26.973,-40.97 5.58,2.017 11.053,1.527 14.424,-1.844 5.449,-5.455 3.37,-16.377 -4.641,-24.398 -8.027,-8.028 -18.953,-10.107 -24.403,-4.652 -3.384,3.383 -3.854,8.843 -1.839,14.43 -10.201,3.731 -23.597,12.252 -37.66,24.117 L 54.168639,10.360684 1.070637,1.6236845 10.798638,53.727684 280.00064,312.6627 c -11.48,13.74 -19.732,26.796 -23.388,36.788 -5.581,-2.019 -11.053,-1.537 -14.424,1.833 -5.461,5.455 -3.376,16.384 4.651,24.4 8.017,8.027 18.943,10.106 24.396,4.651 3.381,-3.376 3.853,-8.849 1.845,-14.431 10.996,-4.026 25.717,-13.608 40.967,-26.966 7.157,11.437 17.646,24.499 30.476,37.319 14.811,14.808 29.935,26.518 42.499,33.554 -1.625,8.745 0.935,18.107 7.699,24.872 10.907,10.904 28.593,10.904 39.502,0 10.906,-10.899 10.906,-28.578 -0.007,-39.489 z M 21.106639,56.138684 l -5.776,-28.796 14.832,19.735 L 277.86664,294.7927 Z"
       id="path2-8"
       inkscape:connector-curvature="0" />
  </g>
</svg>
