<?xml version="1.0" encoding="UTF-8" standalone="no"?>
<svg
   xmlns:dc="http://purl.org/dc/elements/1.1/"
   xmlns:cc="http://creativecommons.org/ns#"
   xmlns:rdf="http://www.w3.org/1999/02/22-rdf-syntax-ns#"
   xmlns:svg="http://www.w3.org/2000/svg"
   xmlns="http://www.w3.org/2000/svg"
   xmlns:sodipodi="http://sodipodi.sourceforge.net/DTD/sodipodi-0.dtd"
   xmlns:inkscape="http://www.inkscape.org/namespaces/inkscape"
   fill="#000000"
   height="24"
   viewBox="0 0 24 24"
   width="24"
   version="1.1"
   id="svg6"
   sodipodi:docname="ic_box_frame_black_24px.svg"
   inkscape:version="0.92.1 r15371">
  <metadata
     id="metadata12">
    <rdf:RDF>
      <cc:Work
         rdf:about="">
        <dc:format>image/svg+xml</dc:format>
        <dc:type
           rdf:resource="http://purl.org/dc/dcmitype/StillImage" />
      </cc:Work>
    </rdf:RDF>
  </metadata>
  <defs
     id="defs10" />
  <sodipodi:namedview
     pagecolor="#ffffff"
     bordercolor="#666666"
     borderopacity="1"
     objecttolerance="10"
     gridtolerance="10"
     guidetolerance="10"
     inkscape:pageopacity="0"
     inkscape:pageshadow="2"
     inkscape:window-width="1794"
     inkscape:window-height="1057"
     id="namedview8"
     showgrid="false"
     inkscape:zoom="19.666667"
     inkscape:cx="0.42733851"
     inkscape:cy="12.940608"
     inkscape:window-x="118"
     inkscape:window-y="-8"
     inkscape:window-maximized="1"
     inkscape:current-layer="svg6" />
  <path
     d="m 4.824429,0.06918347 h 14.978549 c 1.187585,0 2.139794,1.20268823 2.139794,2.67264033 V 21.450306 c 0,1.469952 -0.952209,2.672641 -2.139794,2.672641 H 4.824429 c -1.1768857,0 -2.1397931,-1.202689 -2.1397931,-2.672641 V 2.7418238 c 0,-1.4699521 0.9629074,-2.67264033 2.1397931,-2.67264033 z M 6.9642224,13.432385 h 4.2795846 v 5.345281 h 2.139794 v -5.345281 h 4.279587 V 10.759744 H 13.383601 V 5.4144641 H 11.243807 V 10.759744 H 6.9642224 Z"
     id="path2"
     inkscape:connector-curvature="0"
     style="stroke-width:1.19571066" />
  <path
     d="M 24,0.00337004 H 0 V 24.162466 h 24 z"
     id="path4"
     inkscape:connector-curvature="0"
     style="fill:none;stroke-width:1.00330901" />
  <path
     style="fill:none;stroke:#000000;stroke-width:1.19571066px;stroke-linecap:butt;stroke-linejoin:miter;stroke-opacity:1"
     d="M 5.0239011,1.8698182 19.712309,1.835844"
     id="path16"
     inkscape:connector-curvature="0" />
  <path
     style="fill:none;stroke:#000000;stroke-width:1.19571066px;stroke-linecap:butt;stroke-linejoin:miter;stroke-opacity:1"
     d="m 4.8334963,2.7531486 0.027194,18.6858324 14.9604187,0.10192 V 2.7191742 Z"
     id="path28"
     inkscape:connector-curvature="0" />
  <path
     style="fill:none;stroke:#000000;stroke-width:1.19571066px;stroke-linecap:butt;stroke-linejoin:miter;stroke-opacity:1"
     d="M 5.6223188,2.3114834 5.567915,7.4755682 7.607972,7.0678772 c 0,0 0.027209,-3.1256302 0,-3.2615272 C 7.580763,3.670453 5.622316,2.3114834 5.622316,2.3114834 Z"
     id="path34"
     inkscape:connector-curvature="0" />
  <path
     style="stroke-width:0.0303994"
     d="M 4.5800167,24.087355 C 3.9604397,23.99559 3.3795258,23.536996 3.0318943,22.865206 2.9029207,22.61598 2.7744117,22.215297 2.7328346,21.932806 2.69089,21.647818 2.69089,2.5421993 2.7328346,2.2572117 2.8827342,1.2387199 3.5447263,0.38904146 4.3760117,0.14816788 4.5852785,0.08753102 4.8901632,0.08511362 12.332232,0.08511362 h 7.738616 l 0.230238,0.07664866 c 0.783242,0.26074893 1.333032,0.93149402 1.557928,1.90068052 l 0.06149,0.2649712 v 9.767594 9.767596 l -0.06149,0.264971 c -0.222872,0.960458 -0.760433,1.622279 -1.543358,1.900107 l -0.217609,0.07723 -7.670612,0.0042 c -4.2188372,0.0024 -7.7501757,-0.0074 -7.8474183,-0.02186 z m 8.8130463,-7.966399 v -2.666977 h 2.135258 2.13526 v -1.358971 -1.35897 h -2.13526 -2.135258 V 8.0690609 5.4020831 H 12.318632 11.244203 V 8.0690609 10.736038 H 9.0953422 6.9464823 v 1.35897 1.358971 h 2.1488599 2.1488608 v 2.666977 2.666978 h 1.074429 1.074431 z"
     id="path36"
     inkscape:connector-curvature="0" />
  <path
     style="stroke-width:0.0303994"
     d="M 4.5748543,24.086717 C 4.3123231,24.048098 4.1101545,23.967103 3.8319964,23.789104 3.634842,23.662942 3.5395352,23.572571 3.3423821,23.32486 3.0069236,22.903375 2.8317322,22.512805 2.7426523,21.987829 2.6848348,21.647118 2.6848348,2.5428991 2.7426523,2.2021885 2.9108908,1.2107055 3.527541,0.42226239 4.3488098,0.14856812 4.5326159,0.08731386 4.8093093,0.08511428 12.332232,0.08511428 h 7.793017 l 0.23957,0.09384576 c 0.522349,0.20461854 0.905602,0.54540237 1.184214,1.05298386 0.114526,0.2086096 0.261484,0.5988677 0.323004,0.8576502 0.0459,0.1930668 0.04889,0.7131435 0.05647,9.8355429 0.0057,6.873709 -5.46e-4,9.707135 -0.02191,9.895145 -0.121443,1.069194 -0.726559,1.906652 -1.604561,2.220703 -0.170402,0.06095 -0.455012,0.06341 -7.861017,0.06788 -4.2263177,0.0025 -7.7660998,-0.0073 -7.8661816,-0.02215 z m 8.8182087,-7.965761 v -2.666977 h 2.135258 2.13526 v -1.358971 -1.35897 h -2.13526 -2.135258 V 8.0690609 5.4020831 H 12.318632 11.244203 V 8.0690609 10.736038 H 9.0953422 6.9464823 v 1.35897 1.358971 h 2.1488599 2.1488608 v 2.666977 2.666978 h 1.074429 1.074431 z"
     id="path38"
     inkscape:connector-curvature="0" />
  <path
     style="stroke-width:0.02115319"
     d="M 9.1233218,24.086717 C 8.9962067,24.048098 8.8983167,23.967103 8.7636336,23.789104 8.668164,23.662942 8.6220281,23.572571 8.5265636,23.32486 8.3641363,22.903375 8.2793097,22.512805 8.2361771,21.987829 8.2081901,21.647118 8.2081901,2.5428991 8.2361771,2.2021885 8.2751398,1.7280675 8.3581061,1.3210317 8.4924429,0.94506558 8.6277682,0.56632372 8.8175871,0.27626579 9.0162544,0.14462436 9.1007891,0.08860315 9.3276905,0.08511402 12.885999,0.08511402 h 3.779932 l 0.111943,0.09738967 c 0.241554,0.21014036 0.413452,0.51613335 0.542791,0.96621281 0.0617,0.2146669 0.145423,0.6574293 0.177952,0.9408775 0.02213,0.1928137 0.02358,0.7251017 0.02727,9.835543 0.0028,7.02203 -1.45e-4,9.704899 -0.01105,9.901864 -0.0576,1.046315 -0.353814,1.903594 -0.761479,2.203776 l -0.100677,0.07413 -3.720666,0.0042 c -2.046365,0.0024 -3.7603124,-0.0078 -3.8087731,-0.02248 z m 4.2697412,-7.965761 v -2.666977 h 1.033883 1.033883 v -1.358971 -1.35897 H 14.426946 13.393063 V 8.0690609 5.4020831 h -0.520237 -0.520233 v 2.6669778 2.6669771 h -1.040469 -1.040468 v 1.35897 1.358971 h 1.040468 1.040469 v 2.666977 2.666978 h 0.520233 0.520237 z"
     id="path40"
     inkscape:connector-curvature="0" />
  <rect
     style="fill:#ffffff;stroke-width:1.24859679"
     id="rect68"
     width="14.987617"
     height="20.486467"
     x="4.833498"
     y="1.8698193" />
  <rect
     style="fill:#ffffff;stroke-width:1.19571066"
     id="rect70"
     width="4.161716"
     height="10.701886"
     x="2.6030345"
     y="6.7621088" />
  <rect
     style="fill:#ffffff;stroke-width:1.31664324"
     id="rect72"
     width="4.1885977"
     height="10.701886"
     x="18.45594"
     y="6.7281351" />
  <rect
     style="fill:#ffffff;stroke-width:1.19571066"
     id="rect74"
     width="8.595438"
     height="25.888372"
     x="8.0431824"
     y="-0.5083788" />
  <path
     inkscape:connector-curvature="0"
     d="m 12.64726,8.8593687 c -1.626568,0 -2.946672,1.3722583 -2.946672,3.0630763 0,1.690817 1.320104,3.063072 2.946672,3.063072 1.626564,0 2.946674,-1.372255 2.946674,-3.063072 0,-1.690818 -1.32011,-3.0630763 -2.946674,-3.0630763 z m 1.473335,3.3693813 h -1.178666 v 1.225229 H 12.352593 V 12.22875 h -1.17867 v -0.612611 h 1.17867 v -1.225231 h 0.589336 v 1.225231 h 1.178666 z"
     id="path4-2"
     style="stroke-width:0.30043095" />
</svg>
