<?xml version="1.0" encoding="utf-8"?>
<!-- Generator: Adobe Illustrator 21.1.0, SVG Export Plug-In . SVG Version: 6.00 Build 0)  -->
<svg version="1.1" id="icon_x5F_96x96_x5F_fault" xmlns="http://www.w3.org/2000/svg" xmlns:xlink="http://www.w3.org/1999/xlink"
	 x="0px" y="0px" width="96px" height="96px" viewBox="0 0 96 96" style="enable-background:new 0 0 96 96;" xml:space="preserve">
<style type="text/css">
	.st0{fill:#AAB1B6;}
	.st1{fill:#D24625;}
	.st2{enable-background:new    ;}
	.st3{fill:#FFFFFF;}
</style>
<g>
	<path class="st0" d="M78.3,17.2L65.1,4.5C62.6,2,58.3,0.3,54.7,0.2H21.5c-0.9,0-1.9,0.1-2.8,0.4l0,0L18,0.9c-3.7,1.5-6.1,5-6.1,8.9
		v76.3c0,5.3,4.3,9.6,9.6,9.6h51.7c5.3,0,9.6-4.3,9.6-9.6V27.7C82.8,24,80.9,19.7,78.3,17.2z M74.4,23.8H61.2c-0.1,0-0.1,0-0.1-0.1
		V10.5l12.2,11.8C73.7,22.7,74,23.2,74.4,23.8z M75.6,86.3c-0.1,1.3-1.1,2.2-2.4,2.2H21.5c-1.3,0-2.4-1.1-2.4-2.4V9.8
		c0-1.3,1.1-2.4,2.4-2.4h32.4v16.2c0,4,3.3,7.3,7.3,7.3h14.4V86.3L75.6,86.3z"/>
</g>
<path class="st1" d="M67.7,78c0,1.7-1.3,3-3,3H8c-1.7,0-3-1.3-3-3V54.5c0-1.7,1.3-3,3-3h56.7c1.7,0,3,1.3,3,3V78z"/>
<g class="st2">
	<path class="st3" d="M21.8,68.1h-3.1v4.7c0,0.7-0.2,1.2-0.5,1.5s-0.7,0.5-1.2,0.5c-0.5,0-0.9-0.2-1.2-0.5c-0.3-0.3-0.5-0.9-0.5-1.5
		V60c0-0.7,0.2-1.3,0.5-1.6s0.9-0.5,1.6-0.5h4.3c1.3,0,2.3,0.1,3,0.3c0.7,0.2,1.3,0.5,1.8,0.9c0.5,0.4,0.9,1,1.1,1.6
		s0.4,1.4,0.4,2.2c0,1.7-0.5,3-1.6,3.9S23.9,68.1,21.8,68.1z M21,60.5h-2.3v5.1H21c0.8,0,1.5-0.1,2-0.3s0.9-0.4,1.2-0.8
		c0.3-0.4,0.4-0.9,0.4-1.5c0-0.7-0.2-1.3-0.6-1.8C23.5,60.7,22.5,60.5,21,60.5z"/>
	<path class="st3" d="M37.3,68.1h-3.1v4.7c0,0.7-0.2,1.2-0.5,1.5s-0.7,0.5-1.2,0.5c-0.5,0-0.9-0.2-1.2-0.5c-0.3-0.3-0.5-0.9-0.5-1.5
		V60c0-0.7,0.2-1.3,0.5-1.6s0.9-0.5,1.6-0.5h4.3c1.3,0,2.3,0.1,3,0.3c0.7,0.2,1.3,0.5,1.8,0.9c0.5,0.4,0.9,1,1.1,1.6
		s0.4,1.4,0.4,2.2c0,1.7-0.5,3-1.6,3.9S39.4,68.1,37.3,68.1z M36.5,60.5h-2.3v5.1h2.3c0.8,0,1.5-0.1,2-0.3s0.9-0.4,1.2-0.8
		c0.3-0.4,0.4-0.9,0.4-1.5c0-0.7-0.2-1.3-0.6-1.8C39,60.7,38,60.5,36.5,60.5z"/>
	<path class="st3" d="M57.3,60.7h-3.7v12.1c0,0.7-0.2,1.2-0.5,1.6c-0.3,0.3-0.7,0.5-1.2,0.5c-0.5,0-0.9-0.2-1.2-0.5
		c-0.3-0.3-0.5-0.9-0.5-1.6V60.7h-3.7c-0.6,0-1-0.1-1.3-0.4s-0.4-0.6-0.4-1c0-0.4,0.1-0.8,0.4-1s0.7-0.4,1.3-0.4h10.8
		c0.6,0,1,0.1,1.3,0.4c0.3,0.3,0.4,0.6,0.4,1s-0.1,0.8-0.4,1S57.9,60.7,57.3,60.7z"/>
</g>
</svg>
