<?xml version="1.0" encoding="utf-8"?>
<!-- Generator: Adobe Illustrator 21.1.0, SVG Export Plug-In . SVG Version: 6.00 Build 0)  -->
<svg version="1.1" id="icon_x5F_96x96_x5F_fault" xmlns="http://www.w3.org/2000/svg" xmlns:xlink="http://www.w3.org/1999/xlink"
	 x="0px" y="0px" width="96px" height="96px" viewBox="0 0 96 96" style="enable-background:new 0 0 96 96;" xml:space="preserve">
<style type="text/css">
	.st0{fill:#AAB1B6;}
	.st1{fill:#207245;}
	.st2{enable-background:new    ;}
	.st3{fill:#FFFFFF;}
	.st4{fill:#D24625;}
	.st5{fill:#2C5898;}
	.st6{fill:#FB0000;}
</style>
<g>
	<path class="st0" d="M78.3,17.2L65.1,4.5C62.6,2,58.3,0.3,54.7,0.2H21.5c-0.9,0-1.9,0.1-2.8,0.4l0,0L18,0.9c-3.7,1.5-6.1,5-6.1,8.9
		l0,76.3c0,5.3,4.3,9.6,9.6,9.6h51.7c5.3,0,9.6-4.3,9.6-9.6V27.7C82.8,24,80.9,19.7,78.3,17.2z M74.4,23.8H61.2
		c-0.1,0-0.1,0-0.1-0.1l0-13.2l12.2,11.8C73.7,22.7,74,23.2,74.4,23.8z M75.6,86.3c-0.1,1.3-1.1,2.2-2.4,2.2H21.5
		c-1.3,0-2.4-1.1-2.4-2.4V9.8c0-1.3,1.1-2.4,2.4-2.4h32.4v16.2c0,4,3.3,7.3,7.3,7.3h14.4L75.6,86.3L75.6,86.3z"/>
</g>
<path class="st1" d="M67.7,78c0,1.7-1.3,3-3,3H8c-1.7,0-3-1.3-3-3V54.5c0-1.7,1.3-3,3-3h56.7c1.7,0,3,1.3,3,3V78z"/>
<g class="st2">
	<path class="st3" d="M15.9,71.5l3.7-5.4l-3.1-4.8c-0.3-0.5-0.5-0.9-0.7-1.2c-0.1-0.3-0.2-0.7-0.2-1c0-0.3,0.1-0.6,0.4-0.8
		c0.3-0.2,0.6-0.4,1-0.4c0.5,0,0.8,0.1,1.1,0.4c0.3,0.3,0.6,0.8,1.1,1.5l2.5,4l2.6-4c0.2-0.3,0.4-0.6,0.6-0.9
		c0.2-0.2,0.3-0.4,0.4-0.6c0.1-0.2,0.3-0.3,0.5-0.4C26,58,26.2,58,26.4,58c0.4,0,0.8,0.1,1,0.4c0.3,0.3,0.4,0.5,0.4,0.9
		c0,0.5-0.3,1.2-0.9,2l-3.2,4.9l3.5,5.4c0.3,0.5,0.5,0.9,0.7,1.2s0.2,0.6,0.2,0.9c0,0.3-0.1,0.5-0.2,0.7s-0.3,0.4-0.5,0.5
		S26.9,75,26.6,75c-0.3,0-0.6-0.1-0.8-0.2s-0.4-0.3-0.5-0.5c-0.1-0.2-0.4-0.6-0.8-1.1l-2.9-4.6l-3.1,4.7c-0.2,0.4-0.4,0.6-0.5,0.8
		c-0.1,0.1-0.2,0.3-0.4,0.4s-0.3,0.3-0.5,0.3S16.7,75,16.5,75c-0.4,0-0.7-0.1-1-0.4c-0.3-0.2-0.4-0.6-0.4-1.1
		C15.1,73,15.4,72.3,15.9,71.5z"/>
	<path class="st3" d="M33.7,60v12h6.8c0.5,0,1,0.1,1.2,0.4c0.3,0.3,0.4,0.6,0.4,1c0,0.4-0.1,0.7-0.4,1c-0.3,0.3-0.7,0.4-1.2,0.4
		h-8.1c-0.7,0-1.2-0.2-1.6-0.5c-0.3-0.3-0.5-0.8-0.5-1.6V60c0-0.7,0.2-1.2,0.5-1.5c0.3-0.3,0.7-0.5,1.2-0.5c0.5,0,0.9,0.2,1.2,0.5
		C33.5,58.8,33.7,59.3,33.7,60z"/>
	<path class="st3" d="M55.9,69.8c0,1-0.3,1.9-0.8,2.7c-0.5,0.8-1.3,1.4-2.3,1.9S50.7,75,49.4,75c-1.6,0-3-0.3-4-0.9
		c-0.7-0.4-1.4-1-1.8-1.8c-0.5-0.7-0.7-1.5-0.7-2.2c0-0.4,0.1-0.8,0.4-1c0.3-0.3,0.6-0.4,1.1-0.4c0.4,0,0.6,0.1,0.9,0.3
		c0.2,0.2,0.5,0.6,0.6,1c0.2,0.5,0.4,1,0.7,1.3c0.2,0.4,0.6,0.6,1,0.9s1,0.3,1.7,0.3c1,0,1.8-0.2,2.4-0.7c0.6-0.5,0.9-1,0.9-1.7
		c0-0.5-0.2-1-0.5-1.3c-0.3-0.3-0.8-0.6-1.3-0.8c-0.5-0.2-1.2-0.4-2.1-0.6c-1.2-0.3-2.2-0.6-3-1c-0.8-0.4-1.4-0.9-1.9-1.5
		s-0.7-1.4-0.7-2.4c0-0.9,0.2-1.7,0.7-2.4c0.5-0.7,1.2-1.2,2.1-1.6c0.9-0.4,2-0.6,3.3-0.6c1,0,1.9,0.1,2.6,0.4
		c0.7,0.3,1.3,0.6,1.8,1s0.8,0.9,1.1,1.3s0.3,0.9,0.3,1.3c0,0.4-0.1,0.8-0.4,1.1c-0.3,0.3-0.6,0.5-1.1,0.5c-0.4,0-0.7-0.1-0.9-0.3
		c-0.2-0.2-0.4-0.5-0.6-0.9c-0.3-0.6-0.7-1.1-1.1-1.5c-0.4-0.3-1.1-0.5-2-0.5c-0.9,0-1.6,0.2-2.1,0.6c-0.5,0.4-0.8,0.8-0.8,1.4
		c0,0.3,0.1,0.6,0.3,0.9c0.2,0.2,0.4,0.4,0.7,0.6s0.6,0.3,1,0.4c0.3,0.1,0.9,0.2,1.6,0.4c0.9,0.2,1.8,0.5,2.5,0.7
		c0.8,0.3,1.4,0.6,1.9,1c0.5,0.4,0.9,0.8,1.2,1.4C55.8,68.3,55.9,69,55.9,69.8z"/>
</g>
</svg>
