<?xml version="1.0" encoding="utf-8"?>
<!-- Generator: Adobe Illustrator 21.1.0, SVG Export Plug-In . SVG Version: 6.00 Build 0)  -->
<svg version="1.1" id="icon_x5F_96x96_x5F_fault" xmlns="http://www.w3.org/2000/svg" xmlns:xlink="http://www.w3.org/1999/xlink"
	 x="0px" y="0px" width="96px" height="96px" viewBox="0 0 96 96" style="enable-background:new 0 0 96 96;" xml:space="preserve">
<style type="text/css">
	.st0{fill:#AAB1B6;}
	.st1{fill:#FB0000;}
	.st2{enable-background:new    ;}
	.st3{fill:#FFFFFF;}
</style>
<g>
	<path class="st0" d="M78.3,17.2L65.1,4.5C62.6,2,58.3,0.3,54.7,0.2H21.5c-0.9,0-1.9,0.1-2.8,0.4l0,0L18,0.9c-3.7,1.5-6.1,5-6.1,8.9
		v76.3c0,5.3,4.3,9.6,9.6,9.6h51.7c5.3,0,9.6-4.3,9.6-9.6V27.7C82.8,24,80.9,19.7,78.3,17.2z M74.4,23.8H61.2c-0.1,0-0.1,0-0.1-0.1
		V10.5l12.2,11.8C73.7,22.7,74,23.2,74.4,23.8z M75.6,86.3c-0.1,1.3-1.1,2.2-2.4,2.2H21.5c-1.3,0-2.4-1.1-2.4-2.4V9.8
		c0-1.3,1.1-2.4,2.4-2.4h32.4v16.2c0,4,3.3,7.3,7.3,7.3h14.4V86.3L75.6,86.3z"/>
</g>
<path class="st1" d="M67.7,78c0,1.7-1.3,3-3,3H8c-1.7,0-3-1.3-3-3V54.5c0-1.7,1.3-3,3-3h56.7c1.7,0,3,1.3,3,3V78z"/>
<g class="st2">
	<path class="st3" d="M21.2,68.1h-3.1v4.7c0,0.7-0.2,1.2-0.5,1.5s-0.7,0.5-1.2,0.5c-0.5,0-0.9-0.2-1.2-0.5c-0.3-0.3-0.5-0.9-0.5-1.5
		V60c0-0.7,0.2-1.3,0.5-1.6s0.9-0.5,1.6-0.5h4.3c1.3,0,2.3,0.1,3,0.3c0.7,0.2,1.3,0.5,1.8,0.9c0.5,0.4,0.9,1,1.1,1.6
		s0.4,1.4,0.4,2.2c0,1.7-0.5,3-1.6,3.9S23.2,68.1,21.2,68.1z M20.3,60.5h-2.3v5.1h2.3c0.8,0,1.5-0.1,2-0.3s0.9-0.4,1.2-0.8
		c0.3-0.4,0.4-0.9,0.4-1.5c0-0.7-0.2-1.3-0.6-1.8C22.9,60.7,21.9,60.5,20.3,60.5z"/>
	<path class="st3" d="M32.3,57.9h4.4c1.1,0,2.1,0.1,3,0.3s1.6,0.6,2.2,1.2c1.7,1.5,2.6,3.8,2.6,6.8c0,1-0.1,1.9-0.3,2.7
		c-0.2,0.8-0.4,1.6-0.8,2.2s-0.8,1.3-1.4,1.8c-0.4,0.4-0.9,0.7-1.5,1c-0.5,0.2-1.1,0.4-1.7,0.5s-1.3,0.1-2.1,0.1h-4.4
		c-0.6,0-1.1-0.1-1.4-0.3s-0.5-0.4-0.6-0.8c-0.1-0.3-0.1-0.8-0.1-1.3V60c0-0.7,0.2-1.3,0.5-1.6S31.6,57.9,32.3,57.9z M33.7,60.6
		v11.3h2.6c0.6,0,1,0,1.3,0c0.3,0,0.6-0.1,1-0.2c0.3-0.1,0.6-0.3,0.9-0.5c1.1-1,1.7-2.6,1.7-4.9c0-1.6-0.2-2.9-0.7-3.7
		c-0.5-0.8-1.1-1.3-1.8-1.6c-0.7-0.2-1.6-0.3-2.6-0.3H33.7z"/>
	<path class="st3" d="M57.5,60.5h-6.7v4.3h5.6c0.5,0,0.9,0.1,1.2,0.3c0.3,0.2,0.4,0.5,0.4,0.9s-0.1,0.7-0.4,0.9
		c-0.3,0.2-0.6,0.3-1.2,0.3h-5.6v5.5c0,0.7-0.2,1.2-0.5,1.6c-0.3,0.3-0.7,0.5-1.2,0.5c-0.5,0-0.9-0.2-1.2-0.5
		c-0.3-0.3-0.5-0.9-0.5-1.6V60c0-0.5,0.1-0.9,0.2-1.2c0.1-0.3,0.4-0.5,0.7-0.7s0.7-0.2,1.2-0.2h8c0.5,0,0.9,0.1,1.2,0.4
		c0.3,0.2,0.4,0.6,0.4,0.9c0,0.4-0.1,0.7-0.4,1C58.5,60.4,58.1,60.5,57.5,60.5z"/>
</g>
</svg>
