<?xml version="1.0" encoding="utf-8"?>
<!-- Generator: Adobe Illustrator 21.1.0, SVG Export Plug-In . SVG Version: 6.00 Build 0)  -->
<svg version="1.1" id="icon_x5F_96x96_x5F_doc_x5F_chart_x5F_bar"
	 xmlns="http://www.w3.org/2000/svg" xmlns:xlink="http://www.w3.org/1999/xlink" x="0px" y="0px" width="96px" height="96px"
	 viewBox="0 0 96 96" enable-background="new 0 0 96 96" xml:space="preserve">
<path d="M79.1,17.1L65.5,4c-2.4-2.3-6.5-4-9.8-4h-4H49H31h-9.7c-1.1,0-2.1,0.2-3.1,0.6l0,0c-3.2,1.2-5.5,4.4-5.5,8v34.8h0v4v7.3v7.1
	v25.7c0,4.7,3.9,8.6,8.6,8.6h53.4c4.7,0,8.6-3.8,8.6-8.6V27C83.3,23.6,81.5,19.5,79.1,17.1z M62.2,7.4l13.6,13.1
	c0.9,0.9,1.7,2.3,2.2,3.8H62.3c-0.8,0-1.4-0.6-1.4-1.4l0-16.5C61.4,6.7,61.8,7.1,62.2,7.4z M74.7,91.2H21.3c-2.1,0-3.8-1.7-3.8-3.8
	V8.6c0-2.1,1.7-3.8,3.8-3.8h34.3c0.1,0,0.3,0,0.5,0v18.1c0,3.4,2.8,6.2,6.2,6.2h16.2v58.3h0C78.5,89.5,76.8,91.2,74.7,91.2z
	 M22.7,28v-0.2c0-1.1,1-2,2.3-2h19.8c1.3,0,2.3,0.9,2.3,2l0,0.2c0,1.1-1,2-2.3,2H25C23.7,30,22.7,29.1,22.7,28z M69.5,59.1v0.2
	c0,1.1-1,2-2.3,2h-42c-1.3,0-2.3-0.9-2.3-2v-0.2c0-1.1,1-2,2.3-2h42C68.4,57.1,69.5,58,69.5,59.1z M22.7,46.2V46c0-1.1,1-2,2.3-2h42
	c1.3,0,2.3,0.9,2.3,2v0.2c0,1.1-1,2-2.3,2H25C23.7,48.2,22.7,47.3,22.7,46.2z M69.5,72.6v0.2c0,1.1-1,2-2.3,2h-42
	c-1.3,0-2.3-0.9-2.3-2v-0.2c0-1.1,1-2,2.3-2h42C68.4,70.6,69.5,71.5,69.5,72.6z"/>
</svg>
