<?xml version="1.0" encoding="utf-8"?>
<!-- Generator: Adobe Illustrator 15.1.0, SVG Export Plug-In . SVG Version: 6.00 Build 0)  -->
<!DOCTYPE svg PUBLIC "-//W3C//DTD SVG 1.1//EN" "http://www.w3.org/Graphics/SVG/1.1/DTD/svg11.dtd">
<svg version="1.1" id="icon_x5F_96x96_x5F_fault" xmlns="http://www.w3.org/2000/svg" xmlns:xlink="http://www.w3.org/1999/xlink"
	 x="0px" y="0px" width="96px" height="96px" viewBox="0 0 96 96" enable-background="new 0 0 96 96" xml:space="preserve">
<path d="M47.125,0C21.096,0,0,21.096,0,47.125C0,73.152,21.096,94.25,47.125,94.25c26.028,0,47.125-21.098,47.125-47.125
	C94.25,21.096,73.153,0,47.125,0z M42.669,15.708h8.496c2.353,0,4.174,1.521,4.05,3.868l-1.676,31.271
	c-0.127,2.354-2.149,3.527-4.506,3.527h-4.14c-2.352,0-4.381-1.164-4.512-3.507l-1.751-30.919
	C38.504,17.599,40.318,15.708,42.669,15.708z M47.011,78.466c-4.724,0-8.709-3.983-8.709-8.713c0-4.635,3.984-8.61,8.709-8.61
	c4.726,0,8.617,3.977,8.617,8.61C55.628,74.482,51.736,78.466,47.011,78.466z"/>
</svg>
