<?xml version="1.0" encoding="utf-8"?>
<!-- Generator: Adobe Illustrator 21.1.0, SVG Export Plug-In . SVG Version: 6.00 Build 0)  -->
<svg version="1.1" id="icon_x5F_96x96_x5F_fault" xmlns="http://www.w3.org/2000/svg" xmlns:xlink="http://www.w3.org/1999/xlink"
	 x="0px" y="0px" width="26.5px" height="96px" viewBox="0 0 26.5 96" enable-background="new 0 0 26.5 96" xml:space="preserve">
<g>
	<path d="M10.1,59.1h6.3c3.6,0,6.7-1.8,6.9-5.4l2.6-47.8C26.1,2.3,23.3,0,19.7,0h-13C3.1,0,0.3,2.9,0.5,6.5l2.7,47.3
		C3.4,57.4,6.5,59.1,10.1,59.1z"/>
	<path d="M13.3,96c7.2,0,13.2-6.1,13.2-13.3c0-7.1-6-13.2-13.2-13.2S0,75.6,0,82.7C0,89.9,6.1,96,13.3,96z"/>
</g>
</svg>
