<?xml version="1.0" encoding="utf-8"?>
<!-- Generator: Adobe Illustrator 15.1.0, SVG Export Plug-In . SVG Version: 6.00 Build 0)  -->
<!DOCTYPE svg PUBLIC "-//W3C//DTD SVG 1.1//EN" "http://www.w3.org/Graphics/SVG/1.1/DTD/svg11.dtd">
<svg version="1.1" id="Layer_5" xmlns="http://www.w3.org/2000/svg" xmlns:xlink="http://www.w3.org/1999/xlink" x="0px" y="0px"
	 width="96px" height="96px" viewBox="0 0 96 96" enable-background="new 0 0 96 96" xml:space="preserve">
<g id="approved_filter">
	<path fill="#1D1D1B" d="M75.672,33.32L40.445,76.382l-17.67-19.969c-1.826-2.046-1.439-5.049,0.872-6.655
		c2.325-1.633,5.673-1.288,7.5,0.774l8.967,10.129L67.067,27.73c1.729-2.117,5.062-2.601,7.442-1.053
		C76.891,28.228,77.416,31.203,75.672,33.32z M47.736,0.43C21.378,0.43,0,21.821,0,48.208C0,74.608,21.378,96,47.736,96
		c26.36,0,47.736-21.392,47.736-47.792C95.473,21.821,74.097,0.43,47.736,0.43z"/>
</g>
</svg>
