<?xml version="1.0" encoding="UTF-8" standalone="no"?>
<!-- Created with Inkscape (http://www.inkscape.org/) -->

<svg
   xmlns:dc="http://purl.org/dc/elements/1.1/"
   xmlns:cc="http://creativecommons.org/ns#"
   xmlns:rdf="http://www.w3.org/1999/02/22-rdf-syntax-ns#"
   xmlns:svg="http://www.w3.org/2000/svg"
   xmlns="http://www.w3.org/2000/svg"
   xmlns:sodipodi="http://sodipodi.sourceforge.net/DTD/sodipodi-0.dtd"
   xmlns:inkscape="http://www.inkscape.org/namespaces/inkscape"
   width="63.218044mm"
   height="60.691925mm"
   viewBox="0 0 63.218044 60.691925"
   version="1.1"
   id="svg4658"
   inkscape:version="0.92.1 r15371"
   sodipodi:docname="shadow.svg">
  <defs
     id="defs4652" />
  <sodipodi:namedview
     id="base"
     pagecolor="#ffffff"
     bordercolor="#666666"
     borderopacity="1.0"
     inkscape:pageopacity="0.0"
     inkscape:pageshadow="2"
     inkscape:zoom="0.35"
     inkscape:cx="-307.67569"
     inkscape:cy="-122.44944"
     inkscape:document-units="mm"
     inkscape:current-layer="layer1"
     showgrid="false"
     inkscape:window-width="1920"
     inkscape:window-height="1017"
     inkscape:window-x="-8"
     inkscape:window-y="-8"
     inkscape:window-maximized="1"
     fit-margin-top="0"
     fit-margin-left="0"
     fit-margin-right="0"
     fit-margin-bottom="0" />
  <metadata
     id="metadata4655">
    <rdf:RDF>
      <cc:Work
         rdf:about="">
        <dc:format>image/svg+xml</dc:format>
        <dc:type
           rdf:resource="http://purl.org/dc/dcmitype/StillImage" />
        <dc:title></dc:title>
      </cc:Work>
    </rdf:RDF>
  </metadata>
  <g
     inkscape:label="Layer 1"
     inkscape:groupmode="layer"
     id="layer1"
     transform="translate(-64.39693,-55.743326)">
    <g
       id="g4650"
       transform="translate(-1.2440471,-113.19296)">
      <path
         inkscape:connector-curvature="0"
         id="path4485-0-0-7"
         d="m 118.23228,172.8539 a 32.694938,32.694938 0 0 1 8.07548,21.45244 32.694938,32.694938 0 0 1 -32.694649,32.69516 32.694938,32.694938 0 0 1 -22.200195,-8.74779 32.694938,32.694938 0 0 0 24.619167,11.24221 32.694938,32.694938 0 0 0 32.694647,-32.69465 32.694938,32.694938 0 0 0 -10.49445,-23.94737 z"
         style="fill:#000000;fill-opacity:1;stroke:#000000;stroke-width:0.26458332;stroke-opacity:1" />
      <path
         inkscape:connector-curvature="0"
         id="path4485-0-09"
         d="m 114.94049,169.02881 a 32.694938,32.694938 0 0 1 6.86935,20.02358 32.694938,32.694938 0 0 1 -32.694646,32.69517 32.694938,32.694938 0 0 1 -23.369634,-9.83765 32.694938,32.694938 0 0 0 25.82633,12.67261 32.694938,32.694938 0 0 0 32.69516,-32.69516 32.694938,32.694938 0 0 0 -9.32656,-22.85855 z"
         style="fill:#000000;fill-opacity:1;stroke:#000000;stroke-width:0.26458332;stroke-opacity:1" />
    </g>
  </g>
</svg>
