<?xml version="1.0" encoding="utf-8"?>
<!-- Generator: Adobe Illustrator 21.1.0, SVG Export Plug-In . SVG Version: 6.00 Build 0)  -->
<svg version="1.1" id="icon_x5F_96x96_x5F_fault" xmlns="http://www.w3.org/2000/svg" xmlns:xlink="http://www.w3.org/1999/xlink"
	 x="0px" y="0px" width="96px" height="96px" viewBox="0 0 96 96" style="enable-background:new 0 0 96 96;" xml:space="preserve">
<style type="text/css">
	.st0{fill:#AAB1B6;}
	.st1{fill:#2C5898;}
	.st2{enable-background:new    ;}
	.st3{fill:#FFFFFF;}
</style>
<g>
	<path class="st0" d="M78.3,17.2L65.1,4.5C62.6,2,58.3,0.3,54.7,0.2H21.5c-0.9,0-1.9,0.1-2.8,0.4l0,0L18,0.9c-3.7,1.5-6.1,5-6.1,8.9
		v76.3c0,5.3,4.3,9.6,9.6,9.6h51.7c5.3,0,9.6-4.3,9.6-9.6V27.7C82.8,24,80.9,19.7,78.3,17.2z M74.4,23.8H61.2c-0.1,0-0.1,0-0.1-0.1
		V10.5l12.2,11.8C73.7,22.7,74,23.2,74.4,23.8z M75.6,86.3c-0.1,1.3-1.1,2.2-2.4,2.2H21.5c-1.3,0-2.4-1.1-2.4-2.4V9.8
		c0-1.3,1.1-2.4,2.4-2.4h32.4v16.2c0,4,3.3,7.3,7.3,7.3h14.4V86.3L75.6,86.3z"/>
</g>
<path class="st1" d="M67.7,78c0,1.7-1.3,3-3,3H8c-1.7,0-3-1.3-3-3V54.5c0-1.7,1.3-3,3-3h56.7c1.7,0,3,1.3,3,3V78z"/>
<g class="st2">
	<path class="st3" d="M13.7,57.9h4.4c1.1,0,2.1,0.1,3,0.3s1.6,0.6,2.2,1.2c1.7,1.5,2.6,3.8,2.6,6.8c0,1-0.1,1.9-0.3,2.7
		c-0.2,0.8-0.4,1.6-0.8,2.2S24,72.5,23.5,73c-0.4,0.4-0.9,0.7-1.5,1c-0.5,0.2-1.1,0.4-1.7,0.5s-1.3,0.1-2.1,0.1h-4.4
		c-0.6,0-1.1-0.1-1.4-0.3s-0.5-0.4-0.6-0.8c-0.1-0.3-0.1-0.8-0.1-1.3V60c0-0.7,0.2-1.3,0.5-1.6S13,57.9,13.7,57.9z M15,60.6v11.3
		h2.6c0.6,0,1,0,1.3,0c0.3,0,0.6-0.1,1-0.2c0.3-0.1,0.6-0.3,0.9-0.5c1.1-1,1.7-2.6,1.7-4.9c0-1.6-0.2-2.9-0.7-3.7
		c-0.5-0.8-1.1-1.3-1.8-1.6c-0.7-0.2-1.6-0.3-2.6-0.3H15z"/>
	<path class="st3" d="M36.3,57.6c1.7,0,3.2,0.4,4.5,1.1c1.2,0.7,2.2,1.7,2.8,3c0.6,1.3,1,2.8,1,4.6c0,1.3-0.2,2.5-0.5,3.5
		c-0.3,1.1-0.9,2-1.6,2.7c-0.7,0.8-1.6,1.4-2.6,1.8c-1,0.4-2.2,0.6-3.5,0.6c-1.3,0-2.5-0.2-3.5-0.6c-1-0.4-1.9-1-2.6-1.8
		c-0.7-0.8-1.2-1.7-1.6-2.8c-0.4-1.1-0.5-2.2-0.5-3.5c0-1.3,0.2-2.5,0.6-3.5s0.9-2,1.6-2.7c0.7-0.8,1.6-1.3,2.6-1.7
		C33.8,57.8,35,57.6,36.3,57.6z M41.1,66.2c0-1.2-0.2-2.3-0.6-3.2s-1-1.6-1.7-2s-1.6-0.7-2.5-0.7c-0.7,0-1.3,0.1-1.9,0.4
		c-0.6,0.3-1.1,0.6-1.5,1.1c-0.4,0.5-0.7,1.1-1,1.9c-0.2,0.8-0.4,1.6-0.4,2.5c0,1,0.1,1.8,0.4,2.6c0.2,0.8,0.6,1.4,1,1.9
		c0.4,0.5,0.9,0.9,1.5,1.1c0.6,0.3,1.2,0.4,1.9,0.4c0.9,0,1.7-0.2,2.4-0.6c0.7-0.4,1.3-1.1,1.7-2S41.1,67.6,41.1,66.2z"/>
	<path class="st3" d="M61.6,69.4c0,0.5-0.1,1.1-0.4,1.7c-0.3,0.6-0.7,1.2-1.2,1.8c-0.6,0.6-1.3,1.1-2.2,1.5s-1.9,0.6-3.1,0.6
		c-0.9,0-1.7-0.1-2.4-0.3c-0.7-0.2-1.4-0.4-2-0.8c-0.6-0.4-1.1-0.8-1.6-1.4c-0.4-0.5-0.8-1.1-1.1-1.8c-0.3-0.7-0.5-1.3-0.7-2.1
		c-0.2-0.7-0.2-1.5-0.2-2.3c0-1.3,0.2-2.5,0.6-3.6c0.4-1.1,1-2,1.7-2.7c0.7-0.8,1.6-1.3,2.6-1.7c1-0.4,2-0.6,3.1-0.6
		c1.4,0,2.6,0.3,3.6,0.8s1.9,1.2,2.4,2c0.6,0.8,0.8,1.5,0.8,2.3c0,0.4-0.1,0.7-0.4,1c-0.3,0.3-0.6,0.4-1,0.4c-0.4,0-0.8-0.1-1-0.3
		c-0.2-0.2-0.5-0.6-0.7-1.1c-0.4-0.8-1-1.4-1.6-1.9c-0.6-0.4-1.3-0.6-2.2-0.6c-1.4,0-2.5,0.5-3.3,1.6c-0.8,1.1-1.2,2.6-1.2,4.5
		c0,1.3,0.2,2.4,0.5,3.2c0.4,0.9,0.9,1.5,1.6,1.9c0.7,0.4,1.5,0.6,2.3,0.6c1,0,1.8-0.2,2.5-0.7c0.7-0.5,1.2-1.2,1.5-2.1
		c0.1-0.4,0.3-0.8,0.5-1.1c0.2-0.3,0.6-0.4,1-0.4c0.4,0,0.7,0.1,1,0.4C61.5,68.6,61.6,68.9,61.6,69.4z"/>
</g>
</svg>
