<?xml version="1.0" encoding="utf-8"?>
<!-- Generator: Adobe Illustrator 21.1.0, SVG Export Plug-In . SVG Version: 6.00 Build 0)  -->
<svg version="1.1" id="icon_x5F_96x96_x5F_leisure" xmlns="http://www.w3.org/2000/svg" xmlns:xlink="http://www.w3.org/1999/xlink"
	 x="0px" y="0px" width="96px" height="96px" viewBox="0 0 96 96" enable-background="new 0 0 96 96" xml:space="preserve">
<g>
	<path d="M40,48.1c5.2-2.4,7.6-8.2,6.1-13.6c0.5-0.1,1.1-0.3,1.6-0.6c4.7-2.2,6.6-7.8,4.4-12.4c-1.2-2.5-3.5-4.2-6-4.9
		c0.6-1.7,0.5-3.6-0.3-5.3c-1.3-2.7-4-4.1-6.8-3.9c0-1-0.2-2-0.7-2.9c-1.6-3.4-5.8-4.9-9.2-3.3c-1.1,0.5-1.9,1.3-2.6,2.2
		c-2-1.7-4.9-2.1-7.4-0.9c-2.1,1-3.5,3-3.9,5.2c-1.6-0.4-3.3-0.4-4.8,0.4C7,9.7,5.6,13.8,7.2,17.3c0.1,0.1,0.2,0.3,0.2,0.4
		c-0.1,0-0.2,0.1-0.3,0.1c-6.3,3-9,10.6-6,16.9c2.3,4.8,7.2,7.5,12.2,7.2c0,0.9,0.2,1.8,0.7,2.7c1.5,3.1,5,4.6,8.2,3.7v34.8h9.4
		V48.7C34.3,49.5,37.2,49.4,40,48.1z"/>
	<circle cx="47.9" cy="66.5" r="7.3"/>
	<path d="M92.8,88.9h-4.6L83,74.9c-0.4-1.1-1.5-1.8-2.8-2.1c-1.2-0.2-2.5,0.1-3.4,1l-9.1,9.1L60.5,72c-1.1-1.6-3.3-2-4.9-0.9
		l-3.9,2.6c-0.5,0.4-2.3,1.9-2.7,2.5l-8.8,14.3c-0.8,1.4-0.3,3.2,1.3,4.2L42,95c0.1,0.1,0.2,0.1,0.3,0.1c0.6,0.5,1.4,0.8,2.2,0.8
		h8.2c1.9,0,3.5-1.6,3.5-3.5c0-1.9-1.6-3.5-3.5-3.5h-3.2l3.9-6.4l7.9,11.6c1.4,1.5,3.5,1.8,4,1.8h27.5c1.8,0,3.2-1.4,3.2-3.2v-0.6
		C96,90.4,94.6,88.9,92.8,88.9z M78.3,82.4l2.4,6.6h-9L78.3,82.4z"/>
</g>
</svg>
