<?xml version="1.0" encoding="utf-8"?>
<?xml-stylesheet href="icons.css" type="text/css"?>
<!DOCTYPE svg PUBLIC "-//W3C//DTD SVG 1.1//EN" "http://www.w3.org/Graphics/SVG/1.1/DTD/svg11.dtd">
<svg version="1.1" id="icon_x5F_96x96_x5F_warning" xmlns="http://www.w3.org/2000/svg" xmlns:xlink="http://www.w3.org/1999/xlink"
	 x="0px" y="0px" width="96px" height="96px" viewBox="0 0 96 96" style="enable-background:new 0 0 96 96;" xml:space="preserve">
<path class="icon_96x96_warning" d="M89.588,80.683L50.059,10.624c-0.508-0.903-1.49-1.403-2.519-1.239c-0.759,0.121-1.405,0.588-1.772,1.239L6.238,80.683
	c-0.434,0.771-0.434,2.012,0,2.778C6.679,84.239,7.494,85,8.382,85h79.063c0.885,0,1.703-0.761,2.144-1.539
	C90.021,82.694,90.021,81.453,89.588,80.683z M44.855,33h5.96c1.65,0,2.929,1.154,2.841,2.802L52.479,58
	c-0.088,1.648-1.509,3-3.159,3h-2.905c-1.65,0-3.075-1.383-3.166-3.03l-1.229-22.084C41.93,34.238,43.205,33,44.855,33z
	 M47.9,76.736c-3.315,0-6.11-2.795-6.11-6.109c0-3.251,2.795-6.046,6.11-6.046s6.045,2.795,6.045,6.046
	C53.945,73.941,51.216,76.736,47.9,76.736z"/>
</svg>
